<svg xmlns="http://www.w3.org/2000/svg" viewBox="0 0 59.66 61.82"><defs><style>.cls-1{fill:#efefef;}.cls-2{fill:#f79;}.cls-3{fill:#4d4d4d;}.cls-4{fill:#f44c81;}.cls-5{fill:#d89078;}.cls-6{fill:#ffd9c7;}.cls-7{fill:#f2b9a7;}.cls-8{fill:#ef608f;}</style></defs><title>Cart 2</title><g id="Layer_2" data-name="Layer 2"><g id="Layer_1-2" data-name="Layer 1"><path class="cls-1" d="M7.9,41.44A40.45,40.45,0,0,1,4.4,21.29c.51-7.46,2.76-15.72,8.13-19.17S26.37,0,33.73,2s13.61,4.34,16.9,8.78,3.62,10.89,5.43,18.16,5.07,15.38,2.87,21.34S49.1,60,41.6,60.91a32.32,32.32,0,0,1-20.7-4.64A34.46,34.46,0,0,1,7.9,41.44Z"/><path class="cls-2" d="M21.88,61.57a5.3,5.3,0,1,1,5.3-5.3A5.31,5.31,0,0,1,21.88,61.57Z"/><path class="cls-3" d="M21.88,51.22a5,5,0,1,1-5.05,5.05,5,5,0,0,1,5.05-5.05m0-.5a5.55,5.55,0,1,0,5.55,5.55,5.56,5.56,0,0,0-5.55-5.55Z"/><path class="cls-4" d="M21.88,58.2a1.94,1.94,0,1,1,1.93-1.93A1.93,1.93,0,0,1,21.88,58.2Z"/><path class="cls-3" d="M21.88,54.58a1.69,1.69,0,1,1-1.68,1.69,1.69,1.69,0,0,1,1.68-1.69m0-.5a2.19,2.19,0,1,0,2.18,2.19,2.19,2.19,0,0,0-2.18-2.19Z"/><path class="cls-2" d="M45.67,61.57A5.3,5.3,0,1,1,51,56.27,5.31,5.31,0,0,1,45.67,61.57Z"/><path class="cls-3" d="M45.67,51.22a5,5,0,1,1-5.05,5.05,5,5,0,0,1,5.05-5.05m0-.5a5.55,5.55,0,1,0,5.55,5.55,5.56,5.56,0,0,0-5.55-5.55Z"/><circle class="cls-4" cx="45.67" cy="56.27" r="1.93"/><path class="cls-3" d="M45.67,54.58A1.69,1.69,0,1,1,44,56.27a1.69,1.69,0,0,1,1.68-1.69m0-.5a2.19,2.19,0,1,0,2.19,2.19,2.19,2.19,0,0,0-2.19-2.19Z"/><path class="cls-5" d="M17.1,51a4.81,4.81,0,0,1-4.8-4.79,4.75,4.75,0,0,1,4.16-4.73l.07,0a1.91,1.91,0,0,1,.57-.05,1.35,1.35,0,0,1,.59.14.26.26,0,0,1,.13.31L17,44.08a.25.25,0,0,1-.21.16,1.94,1.94,0,0,0,.27,3.86H49.31a1.43,1.43,0,0,1,0,2.86Z"/><path class="cls-3" d="M17.1,41.62a1,1,0,0,1,.48.12L16.8,44a2.19,2.19,0,0,0,.3,4.35H49.31a1.18,1.18,0,0,1,0,2.36H17.1a4.55,4.55,0,0,1-4.55-4.55,4.51,4.51,0,0,1,3.94-4.48l.1,0a1.88,1.88,0,0,1,.51,0m0-.5a2.06,2.06,0,0,0-.67.07h0a5,5,0,0,0-4.37,5,5.06,5.06,0,0,0,5.05,5.05H49.31a1.68,1.68,0,0,0,0-3.36H17.1a1.69,1.69,0,0,1-.24-3.36.49.49,0,0,0,.41-.33l.78-2.26a.5.5,0,0,0-.24-.61,1.65,1.65,0,0,0-.71-.17Z"/><path class="cls-5" d="M14.3,18.73a.18.18,0,0,1-.1,0c-1.76-.78-2.44-1.11-2.7-1.25a.27.27,0,0,1-.13-.17l-.74-3.37h-9a1.43,1.43,0,1,1,0-2.85h10.1a1.42,1.42,0,0,1,1.4,1.12l1.37,6.24a.27.27,0,0,1-.09.25A.28.28,0,0,1,14.3,18.73Z"/><path class="cls-3" d="M11.78,11.32a1.17,1.17,0,0,1,1.15.92l1.37,6.24c-1.79-.79-2.45-1.11-2.68-1.24l-.79-3.57H1.68a1.18,1.18,0,1,1,0-2.35h10.1m0-.5H1.68a1.68,1.68,0,1,0,0,3.35h8.75l.7,3.18a.49.49,0,0,0,.25.33c.26.14.95.47,2.72,1.26a.48.48,0,0,0,.2,0,.46.46,0,0,0,.32-.11.49.49,0,0,0,.17-.49l-1.37-6.25a1.66,1.66,0,0,0-1.64-1.31Z"/><path class="cls-6" d="M17.17,44.73a.26.26,0,0,1-.25-.19l-.74-3.3L10.93,17.6a.23.23,0,0,1,.05-.21.25.25,0,0,1,.19-.09h44.6a1.9,1.9,0,0,1,1.55.77,2,2,0,0,1,.31,1.7L50.9,43.34A1.94,1.94,0,0,1,49,44.73Z"/><path class="cls-3" d="M55.78,17.55a1.64,1.64,0,0,1,1.34.67,1.72,1.72,0,0,1,.27,1.48L50.66,43.27A1.7,1.7,0,0,1,49,44.48H17.17l-.74-3.3L11.17,17.55H55.78m0-.5H11.17a.48.48,0,0,0-.48.6l5.25,23.64.74,3.3a.49.49,0,0,0,.49.39H49a2.2,2.2,0,0,0,2.1-1.57l6.73-23.57a2.27,2.27,0,0,0-.35-1.92,2.13,2.13,0,0,0-1.74-.87Z"/><polygon class="cls-7" points="13.17 17.55 11.17 17.55 16.43 41.18 17.17 44.48 19.17 44.48 18.43 41.18 13.17 17.55"/><path class="cls-8" d="M17.83,56.27a5,5,0,0,1,4.55-5,4.23,4.23,0,0,0-.5-.05,5.05,5.05,0,1,0,0,10.1c.17,0,.33,0,.5,0A5,5,0,0,1,17.83,56.27Z"/><path class="cls-8" d="M41.62,56.27a5,5,0,0,1,4.55-5,3.85,3.85,0,0,0-.5-.05,5.05,5.05,0,0,0,0,10.1c.18,0,.34,0,.5,0A5.05,5.05,0,0,1,41.62,56.27Z"/></g></g></svg>